<svg id="Layer_1" data-name="Layer 1" xmlns="http://www.w3.org/2000/svg" viewBox="0 0 31.57 31.13"><defs><style>.cls-1{fill:#414042;}.cls-2{fill:none;stroke:#c2b59b;stroke-miterlimit:10;stroke-width:1.24px;}</style></defs><path class="cls-1" d="M26.7,20.66h-5V8.28H19.77V4.9h1.89V1.25L26.72,0V4.9h3V8.28H26.7Z"/><path class="cls-1" d="M15.32,4.9H19v23H14V20.12a5.87,5.87,0,0,1-3.73,1.23,7.55,7.55,0,0,1-4-1.11,8.31,8.31,0,0,1-4-7.14A8.25,8.25,0,0,1,3.4,9,8.13,8.13,0,0,1,6.3,6a7.54,7.54,0,0,1,4-1.11,5.76,5.76,0,0,1,4.4,1.86ZM12.54,16.21A3.33,3.33,0,0,0,13.79,15a3.57,3.57,0,0,0,.46-1.82,3.69,3.69,0,0,0-.45-1.82A3.27,3.27,0,0,0,12.55,10,3.62,3.62,0,0,0,9,10a3.25,3.25,0,0,0-1.24,1.28,3.94,3.94,0,0,0,0,3.64A3.28,3.28,0,0,0,9,16.21a3.38,3.38,0,0,0,1.76.46A3.5,3.5,0,0,0,12.54,16.21Z"/><path class="cls-2" d="M19.93,1.86H1.86A1.24,1.24,0,0,0,.62,3.1V29.28a1.23,1.23,0,0,0,1.24,1.23H28.52a1.23,1.23,0,0,0,1.24-1.23v-8"/><circle class="cls-1" cx="29.76" cy="18.48" r="1.81"/></svg>